<svg xmlns="http://www.w3.org/2000/svg" width="1200" height="420" viewBox="0 0 1200 420"><defs><linearGradient id="g" x1="0" y1="0" x2="1" y2="1"><stop stop-color="#071827"/><stop offset="1" stop-color="#123d4a"/></linearGradient></defs><rect width="1200" height="420" rx="28" fill="url(#g)"/><circle cx="1000" cy="90" r="190" fill="#21c4b6" opacity=".10"/><circle cx="1090" cy="340" r="230" fill="#58a6ff" opacity=".08"/><text x="70" y="105" fill="#5eead4" font-family="Arial,sans-serif" font-size="24" font-weight="700">MEDICINE × DATA × AI</text><text x="70" y="180" fill="white" font-family="Arial,sans-serif" font-size="54" font-weight="700">Heart Disease Analytics</text><text x="70" y="230" fill="#cbd5e1" font-family="Arial,sans-serif" font-size="27">Exploratory Data Analysis · Clinical Risk Modeling</text><rect x="70" y="285" width="150" height="48" rx="24" fill="#153e4a"/><text x="105" y="317" fill="#dffdfa" font-family="Arial,sans-serif" font-size="20">Python</text><rect x="235" y="285" width="190" height="48" rx="24" fill="#153e4a"/><text x="267" y="317" fill="#dffdfa" font-family="Arial,sans-serif" font-size="20">Scikit-learn</text><rect x="440" y="285" width="150" height="48" rx="24" fill="#153e4a"/><text x="480" y="317" fill="#dffdfa" font-family="Arial,sans-serif" font-size="20">Clinical EDA</text><path d="M920 160 C955 105 1040 115 1050 180 C1060 115 1145 105 1180 160 C1215 220 1145 285 1050 350 C955 285 885 220 920 160Z" fill="none" stroke="#5eead4" stroke-width="7" opacity=".85"/><path d="M915 235h55l22-48 35 96 30-70 24 22h85" fill="none" stroke="#58a6ff" stroke-width="6" stroke-linejoin="round"/><text x="70" y="382" fill="#94a3b8" font-family="Arial,sans-serif" font-size="19">Dr. Natheer Soliman, MD · Healthcare Data Analyst</text></svg>